# Blender 4.3.2
# www.blender.org
mtllib sandbox.mtl
o obj1
v 0.934190 0.143762 -0.799979
v 0.934190 -0.171029 -0.799979
v 0.969191 -0.171029 -0.799979
v 0.969191 0.143762 -0.799979
v 0.969191 -0.171029 -0.969190
v 0.969191 0.143762 -0.969190
v 0.843663 -0.171029 -0.969191
v 0.843663 -0.171029 -0.934190
v 0.843663 0.143762 -0.934190
v 0.843663 0.143762 -0.969191
v 0.969191 -0.171029 0.799979
v 0.934190 -0.171029 0.799979
v 0.934190 0.143762 0.799979
v 0.969191 0.143762 0.799979
v 0.969191 -0.171029 0.969191
v 0.969191 0.143762 0.969191
v 0.843662 0.143762 0.934190
v 0.843662 -0.171029 0.934190
v 0.843662 -0.171029 0.969191
v 0.843662 0.143762 0.969191
v -0.969191 -0.171029 -0.799979
v -0.934190 -0.171029 -0.799979
v -0.934190 0.143762 -0.799979
v -0.969191 0.143762 -0.799979
v -0.969190 -0.171029 -0.969191
v -0.969191 0.143762 -0.969191
v -0.843662 0.143762 -0.934190
v -0.843662 -0.171029 -0.934190
v -0.843662 -0.171029 -0.969191
v -0.843662 0.143762 -0.969191
v -0.934190 0.143762 0.799979
v -0.934190 -0.171029 0.799979
v -0.969191 -0.171029 0.799979
v -0.969191 0.143762 0.799979
v -0.969191 -0.171029 0.969190
v -0.969191 0.143762 0.969190
v -0.843663 -0.171029 0.969191
v -0.843663 -0.171029 0.934190
v -0.843663 0.143762 0.934190
v -0.843663 0.143762 0.969191
v -0.969191 -0.171377 0.084606
v -0.934190 -0.171377 0.084606
v -0.934190 0.143414 0.084606
v -0.969191 0.143414 0.084606
v -0.969191 -0.171377 -0.084606
v -0.969191 0.143414 -0.084606
v -0.934190 -0.171377 -0.084606
v -0.934190 0.143414 -0.084606
v 0.934190 0.143414 0.084606
v 0.934190 -0.171376 0.084606
v 0.969191 -0.171376 0.084606
v 0.969191 0.143414 0.084606
v 0.969191 -0.171376 -0.084606
v 0.969191 0.143414 -0.084606
v 0.934190 -0.171376 -0.084606
v 0.934190 0.143414 -0.084606
v -0.084606 -0.171376 -0.969191
v -0.084606 -0.171376 -0.934190
v -0.084606 0.143414 -0.934190
v -0.084606 0.143414 -0.969191
v 0.084606 -0.171376 -0.969191
v 0.084606 0.143414 -0.969191
v 0.084606 -0.171376 -0.934190
v 0.084606 0.143414 -0.934190
v -0.084606 0.143414 0.934190
v -0.084606 -0.171376 0.934190
v -0.084606 -0.171376 0.969191
v -0.084606 0.143414 0.969191
v 0.084606 -0.171376 0.969191
v 0.084606 0.143414 0.969191
v 0.084606 -0.171376 0.934190
v 0.084606 0.143414 0.934190
v -0.934190 -0.171377 -0.934191
v -0.934190 -0.171377 0.934190
v -0.934191 0.143762 0.934190
v -0.934190 0.143762 -0.934191
v 0.934191 -0.171376 -0.934190
v -0.934190 -0.171377 -0.934191
v -0.934190 0.143762 -0.934191
v 0.934191 0.143762 -0.934190
v 0.934190 -0.171376 0.934191
v 0.934191 -0.171376 -0.934190
v 0.934191 0.143762 -0.934190
v 0.934190 0.143762 0.934191
v -0.934190 -0.171377 0.934190
v 0.934190 -0.171376 0.934191
v -0.934191 0.143762 0.934190
v -0.999999 0.171376 -1.000000
v -0.934190 0.171029 -0.934191
v 0.934191 0.171029 -0.934190
v 1.000000 0.171377 -0.999999
v -0.819685 0.171029 0.819684
v 0.819684 0.171029 0.819685
v 0.819684 0.111918 0.819685
v 0.409842 0.111918 0.819685
v -0.000000 0.111918 0.819685
v -0.409842 0.111918 0.819684
v -0.819685 0.111918 0.819684
v 0.999999 0.171377 1.000000
v 0.934190 0.171029 0.934191
v -0.934191 0.171029 0.934190
v -1.000000 0.171376 0.999999
v 0.999999 0.143414 1.000000
v 0.934190 0.143762 0.934191
v 0.934191 0.143762 -0.934190
v 1.000000 0.143414 -0.999999
v -0.819685 0.171029 0.819684
v -0.819684 0.171029 -0.819685
v 0.819685 0.171029 -0.819684
v 0.819684 0.171029 0.819685
v 0.819685 0.171029 -0.819684
v -0.819684 0.171029 -0.819685
v -0.819684 0.111918 -0.819685
v -0.409842 0.111918 -0.819685
v 0.000000 0.111918 -0.819685
v 0.409842 0.111918 -0.819684
v 0.819685 0.111918 -0.819684
v 0.819684 0.111918 0.819685
v 0.819684 0.171029 0.819685
v 0.819685 0.171029 -0.819684
v 0.819685 0.111918 -0.819684
v 0.819685 0.111918 -0.409842
v 0.819685 0.111918 0.000000
v 0.819684 0.111918 0.409842
v -0.819684 0.111918 -0.819685
v -0.819684 0.171029 -0.819685
v -0.819685 0.171029 0.819684
v -0.819685 0.111918 0.819684
v -0.819685 0.111918 0.409842
v -0.819685 0.111918 -0.000000
v -0.819684 0.111918 -0.409842
v 0.999999 0.171377 1.000000
v 0.999999 0.143414 1.000000
v 1.000000 0.143414 -0.999999
v 1.000000 0.171377 -0.999999
v -0.999999 0.171376 -1.000000
v -0.999999 0.143414 -1.000000
v -1.000000 0.143414 0.999999
v -1.000000 0.171376 0.999999
v -1.000000 0.171376 0.999999
v -1.000000 0.143414 0.999999
v 0.999999 0.143414 1.000000
v 0.999999 0.171377 1.000000
v 1.000000 0.171377 -0.999999
v 1.000000 0.143414 -0.999999
v -0.999999 0.143414 -1.000000
v -0.999999 0.171376 -1.000000
v -0.999999 0.143414 -1.000000
v -0.934190 0.143762 -0.934191
v -0.934191 0.143762 0.934190
v -1.000000 0.143414 0.999999
vn -0.0000 -0.0000 1.0000
vn 1.0000 -0.0000 -0.0000
vn -1.0000 -0.0000 -0.0000
vn -0.0000 -0.0000 -1.0000
vn -0.0000 1.0000 0.0053
vn -0.0000 1.0000 -0.0053
vn -0.0053 -1.0000 -0.0000
vn 0.0053 1.0000 -0.0000
vn -0.0000 1.0000 -0.0000
vn 0.0053 -1.0000 -0.0000
vn -0.0000 -1.0000 -0.0053
vn -0.0000 -1.0000 0.0053
vn -0.0053 1.0000 -0.0000
vt 0.209700 0.190800
vt 0.209700 0.068620
vt 0.223290 0.068620
vt 0.223290 0.190800
vt 0.288960 0.068620
vt 0.288960 0.190800
vt 0.337680 0.068620
vt 0.351270 0.068620
vt 0.351270 0.190800
vt 0.337680 0.190800
vt 0.195930 0.068620
vt 0.209510 0.068620
vt 0.209510 0.190800
vt 0.195930 0.190800
vt 0.130250 0.068620
vt 0.130250 0.190800
vt 0.067950 0.190800
vt 0.067950 0.068620
vt 0.081530 0.068620
vt 0.081530 0.190800
vt 0.195930 0.190990
vt 0.209510 0.190990
vt 0.209510 0.313170
vt 0.195930 0.313170
vt 0.130250 0.190990
vt 0.130250 0.313170
vt 0.067950 0.313170
vt 0.067950 0.190990
vt 0.081530 0.190990
vt 0.081530 0.313170
vt 0.209700 0.313170
vt 0.209700 0.190990
vt 0.223290 0.190990
vt 0.223290 0.313170
vt 0.288960 0.190990
vt 0.288960 0.313170
vt 0.337680 0.190990
vt 0.351270 0.190990
vt 0.351270 0.313170
vt 0.337680 0.313170
vt 0.147210 0.313360
vt 0.160790 0.313360
vt 0.160790 0.435540
vt 0.147210 0.435540
vt 0.081530 0.313360
vt 0.081530 0.435540
vt 0.067950 0.313360
vt 0.067950 0.435540
vt 0.160980 0.435540
vt 0.160980 0.313360
vt 0.174570 0.313360
vt 0.174570 0.435540
vt 0.240240 0.313360
vt 0.240240 0.435540
vt 0.253830 0.313360
vt 0.253830 0.435540
vt 0.333280 0.313360
vt 0.346860 0.313360
vt 0.346860 0.435540
vt 0.333280 0.435540
vt 0.267600 0.313360
vt 0.267600 0.435540
vt 0.254020 0.313360
vt 0.254020 0.435540
vt 0.347050 0.435540
vt 0.347050 0.313360
vt 0.360640 0.313360
vt 0.360640 0.435540
vt 0.426310 0.313360
vt 0.426310 0.435540
vt 0.439900 0.313360
vt 0.439900 0.435540
vt 0.607160 0.011740
vt 0.607160 0.834790
vt 0.524510 0.834790
vt 0.524510 0.011740
vt 0.855100 0.011740
vt 0.855100 0.834790
vt 0.772450 0.834790
vt 0.772450 0.011740
vt 0.689810 0.011740
vt 0.689810 0.834790
vt 0.524510 0.000000
vt 0.507250 0.016450
vt 0.017260 0.016450
vt 0.000000 0.000000
vt 0.928340 0.680300
vt 0.928340 0.023280
vt 0.950920 0.023280
vt 0.950920 0.187540
vt 0.950920 0.351790
vt 0.950920 0.516050
vt 0.950920 0.680300
vt 0.000000 0.500000
vt 0.017260 0.483550
vt 0.507250 0.483550
vt 0.524510 0.500000
vt 0.524510 1.000000
vt 0.507250 0.983550
vt 0.507250 0.516450
vt 0.477220 0.454920
vt 0.477220 0.045080
vt 0.047290 0.045080
vt 0.047290 0.454920
vt 0.883190 0.680300
vt 0.883190 0.023280
vt 0.905770 0.023280
vt 0.905770 0.187540
vt 0.905770 0.351790
vt 0.905770 0.516050
vt 0.905770 0.680300
vt 0.860620 0.680300
vt 0.860620 0.023280
vt 0.883190 0.187540
vt 0.883190 0.351790
vt 0.883190 0.516050
vt 0.928340 0.187540
vt 0.928340 0.351790
vt 0.928340 0.516050
vt 0.972280 0.023280
vt 0.982960 0.023280
vt 0.982960 0.824830
vt 0.972280 0.824830
vt 0.961600 0.023280
vt 0.961600 0.824830
vt 0.950920 0.824830
vt 0.993630 0.023280
vt 0.993630 0.824830
vt 0.017260 0.516450
vt 0.017260 0.983550
vt 0.000000 1.000000
s 0
usemtl mat0
f 1/1/1 2/2/1 3/3/1
f 3/3/1 4/4/1 1/1/1
f 4/4/2 3/3/2 5/5/2
f 5/5/2 6/6/2 4/4/2
f 7/7/3 8/8/3 9/9/3
f 9/9/3 10/10/3 7/7/3
f 5/5/4 7/7/4 10/10/4
f 10/10/4 6/6/4 5/5/4
f 11/11/4 12/12/4 13/13/4
f 13/13/4 14/14/4 11/11/4
f 15/15/2 11/11/2 14/14/2
f 14/14/2 16/16/2 15/15/2
f 17/17/3 18/18/3 19/19/3
f 19/19/3 20/20/3 17/17/3
f 20/20/1 19/19/1 15/15/1
f 15/15/1 16/16/1 20/20/1
f 21/21/1 22/22/1 23/23/1
f 23/23/1 24/24/1 21/21/1
f 25/25/3 21/21/3 24/24/3
f 24/24/3 26/26/3 25/25/3
f 27/27/2 28/28/2 29/29/2
f 29/29/2 30/30/2 27/27/2
f 30/30/4 29/29/4 25/25/4
f 25/25/4 26/26/4 30/30/4
f 31/31/4 32/32/4 33/33/4
f 33/33/4 34/34/4 31/31/4
f 34/34/3 33/33/3 35/35/3
f 35/35/3 36/36/3 34/34/3
f 37/37/2 38/38/2 39/39/2
f 39/39/2 40/40/2 37/37/2
f 35/35/1 37/37/1 40/40/1
f 40/40/1 36/36/1 35/35/1
f 41/41/1 42/42/1 43/43/1
f 43/43/1 44/44/1 41/41/1
f 45/45/3 41/41/3 44/44/3
f 44/44/3 46/46/3 45/45/3
f 47/47/4 45/45/4 46/46/4
f 46/46/4 48/48/4 47/47/4
f 49/49/1 50/50/1 51/51/1
f 51/51/1 52/52/1 49/49/1
f 52/52/2 51/51/2 53/53/2
f 53/53/2 54/54/2 52/52/2
f 54/54/4 53/53/4 55/55/4
f 55/55/4 56/56/4 54/54/4
f 57/57/3 58/58/3 59/59/3
f 59/59/3 60/60/3 57/57/3
f 61/61/4 57/57/4 60/60/4
f 60/60/4 62/62/4 61/61/4
f 63/63/2 61/61/2 62/62/2
f 62/62/2 64/64/2 63/63/2
f 65/65/3 66/66/3 67/67/3
f 67/67/3 68/68/3 65/65/3
f 68/68/1 67/67/1 69/69/1
f 69/69/1 70/70/1 68/68/1
f 70/70/2 69/69/2 71/71/2
f 71/71/2 72/72/2 70/70/2
f 73/73/3 74/74/3 75/75/3
f 75/75/3 76/76/3 73/73/3
f 77/77/4 78/78/4 79/79/4
f 79/79/4 80/80/4 77/77/4
f 81/74/2 82/73/2 83/81/2
f 83/81/2 84/82/2 81/74/2
f 85/80/1 86/79/1 84/82/1
f 84/82/1 87/81/1 85/80/1
f 88/83/5 89/84/5 90/85/5
f 90/85/5 91/86/5 88/83/5
f 92/87/4 93/88/4 94/89/4
f 92/87/4 94/89/4 95/90/4
f 92/87/4 95/90/4 96/91/4
f 92/87/4 96/91/4 97/92/4
f 92/87/4 97/92/4 98/93/4
f 99/94/6 100/95/6 101/96/6
f 101/96/6 102/97/6 99/94/6
f 103/98/7 104/99/7 105/100/7
f 105/100/7 106/97/7 103/98/7
f 102/97/8 101/96/8 89/84/8
f 89/84/8 88/83/8 102/97/8
f 101/96/9 107/101/9 108/102/9
f 108/102/9 89/84/9 101/96/9
f 89/84/9 108/102/9 109/103/9
f 109/103/9 90/85/9 89/84/9
f 90/85/9 109/103/9 110/104/9
f 110/104/9 100/95/9 90/85/9
f 100/95/9 110/104/9 107/101/9
f 107/101/9 101/96/9 100/95/9
f 111/105/1 112/106/1 113/107/1
f 111/105/1 113/107/1 114/108/1
f 111/105/1 114/108/1 115/109/1
f 111/105/1 115/109/1 116/110/1
f 111/105/1 116/110/1 117/111/1
f 118/105/3 119/112/3 120/113/3
f 118/105/3 120/113/3 121/106/3
f 118/105/3 121/106/3 122/114/3
f 118/105/3 122/114/3 123/115/3
f 123/115/3 124/116/3 118/105/3
f 125/87/2 126/111/2 127/107/2
f 125/87/2 127/107/2 128/88/2
f 125/87/2 128/88/2 129/117/2
f 125/87/2 129/117/2 130/118/2
f 130/118/2 131/119/2 125/87/2
f 132/120/2 133/121/2 134/122/2
f 134/122/2 135/123/2 132/120/2
f 136/89/3 137/124/3 138/125/3
f 138/125/3 139/126/3 136/89/3
f 140/124/1 141/120/1 142/123/1
f 142/123/1 143/125/1 140/124/1
f 144/121/4 145/127/4 146/128/4
f 146/128/4 147/122/4 144/121/4
f 148/94/10 149/129/10 150/130/10
f 150/130/10 151/131/10 148/94/10
f 151/131/11 150/130/11 104/99/11
f 104/99/11 103/98/11 151/131/11
f 106/97/12 105/100/12 149/129/12
f 149/129/12 148/94/12 106/97/12
f 91/86/13 90/85/13 100/95/13
f 100/95/13 99/94/13 91/86/13
o obj2
v -0.918505 0.125936 0.918505
v -0.918505 0.125936 -0.918505
v 0.918505 0.125936 -0.918505
v 0.918505 0.125936 0.918505
vn 0.0690 0.9960 -0.0571
vn -0.0779 0.9969 0.0125
vn 0.1749 0.9841 -0.0314
vn -0.0017 0.9989 -0.0466
vt 0.497330 0.976670
vt 0.497330 0.526800
vt 0.025410 0.526800
vt 0.025410 0.976670
s 0
usemtl mat1
f 152/132/14 153/133/15 154/134/16 155/135/17
